<?xml version="1.0" standalone="no"?>
<!DOCTYPE svg PUBLIC "-//W3C//DTD SVG 20010904//EN"
 "http://www.w3.org/TR/2001/REC-SVG-20010904/DTD/svg10.dtd">
<svg version="1.0" xmlns="http://www.w3.org/2000/svg"
 width="1200.000000pt" height="1200.000000pt" viewBox="0 0 1200.000000 1200.000000"
 preserveAspectRatio="xMidYMid meet">

<g transform="translate(0.000000,1200.000000) scale(0.100000,-0.100000)"
fill="#000000" stroke="none">
<path d="M0 6000 l0 -6000 6000 0 6000 0 0 6000 0 6000 -6000 0 -6000 0 0
-6000z m4752 3277 c53 -78 231 -338 395 -577 165 -239 343 -498 396 -575 53
-77 196 -286 319 -465 241 -350 322 -468 431 -628 39 -57 73 -105 77 -107 4
-2 69 68 145 157 148 173 632 735 1099 1278 159 184 428 498 600 698 l311 362
294 0 294 0 -20 -22 c-11 -13 -103 -120 -204 -238 -296 -345 -1336 -1555
-1543 -1795 -561 -652 -701 -817 -703 -828 -2 -6 79 -131 180 -277 100 -146
315 -458 477 -695 162 -236 594 -865 960 -1397 366 -532 720 -1048 787 -1145
67 -98 158 -231 202 -296 l81 -117 -992 0 -993 1 -152 222 c-83 122 -402 587
-708 1032 -306 446 -645 939 -753 1097 -108 158 -200 287 -203 285 -4 -1 -134
-150 -290 -332 -156 -181 -405 -472 -554 -645 -392 -455 -805 -936 -1137
-1322 l-290 -338 -294 0 -295 0 248 288 c340 395 624 725 918 1067 137 160
331 385 430 500 99 116 333 388 520 605 187 217 372 433 412 479 40 46 71 86
68 90 -2 4 -174 255 -381 557 -207 302 -420 612 -473 689 -52 77 -143 208
-201 292 -58 84 -184 267 -280 408 -96 141 -208 304 -249 363 -40 59 -260 379
-489 712 -228 333 -439 640 -469 683 l-54 77 993 0 993 0 97 -143z"/>
<path d="M3476 8968 c5 -7 144 -206 309 -443 282 -403 552 -789 1265 -1810
162 -231 487 -697 723 -1035 921 -1318 1174 -1680 1453 -2080 160 -228 314
-450 344 -493 l54 -77 448 0 c246 0 448 3 448 6 0 3 -166 242 -368 532 -203
290 -548 784 -767 1097 -219 314 -563 806 -765 1095 -202 289 -578 827 -835
1195 -694 994 -1049 1501 -1240 1775 l-172 245 -452 3 c-362 2 -451 0 -445
-10z"/>
</g>
</svg>
